# xmcd CD database file
#
# Track frame offsets:
#	150
#	19915
#	36798
#	54008
#
# Disc length: 981 seconds
#
# Revision: 1
# Processed by: cddbd v1.5.1PL0 Copyright (c) Steve Scherf et al.
# Submitted via: CDex 1.50
#
DISCID=2503d304
DTITLE=Breeze - Looking for my true love
DYEAR=2003
DGENRE=New Age
TTITLE0=Looking for my true love
TTITLE1=Show time!!
TTITLE2=TEMPTATION DRIVE
TTITLE3=Looking for my true love (instrumental)
EXTD=YEAR: 2003
EXTT0=
EXTT1=
EXTT2=
EXTT3=
PLAYORDER=
